<svg width="99" height="47" viewBox="0 0 99 47" fill="none" xmlns="http://www.w3.org/2000/svg">
<path d="M53.4126 37.295L50.3224 37.901C50.1406 37.3758 49.9891 36.8305 49.8679 36.265C48.7369 37.2142 47.424 37.6889 45.9294 37.6889C43.7077 37.6889 42.0111 37.0123 40.8397 35.659C39.6884 34.2856 39.1128 32.5284 39.1128 30.3875C39.1128 27.8628 39.7995 25.8835 41.1729 24.4495C42.5666 22.9952 44.758 22.2681 47.7472 22.2681C49.2216 22.2681 50.9788 22.561 53.0187 23.1467V32.8415C53.0187 34.4169 53.15 35.9014 53.4126 37.295ZM46.4445 34.8107C47.7977 34.8107 48.8581 34.225 49.6256 33.0536V32.9627V25.6007C48.6965 25.3987 47.9088 25.2977 47.2625 25.2977C44.1521 25.2977 42.5969 26.9438 42.5969 30.236C42.5969 31.6095 42.9503 32.7203 43.6572 33.5686C44.3641 34.3967 45.2932 34.8107 46.4445 34.8107Z" fill="white"/>
<path d="M54.7473 22.5711H58.3828L61.9881 33.5686L62.4425 33.5383L66.0781 22.5711H69.4409L64.0785 37.5071H60.14L54.7473 22.5711Z" fill="white"/>
<path d="M77.2595 35.0228C78.6329 35.043 80.0972 34.7805 81.6524 34.2351L82.2886 36.5982C80.5315 37.3455 78.7945 37.7192 77.0777 37.7192C74.8156 37.7192 73.0584 37.0527 71.8062 35.7196C70.5741 34.3664 69.9581 32.5688 69.9581 30.3269C69.9581 29.2766 70.0793 28.2971 70.3217 27.3882C70.5842 26.4793 70.9781 25.6411 71.5032 24.8736C72.0283 24.0859 72.7655 23.4699 73.7148 23.0255C74.6641 22.5812 75.775 22.359 77.0474 22.359C79.0268 22.359 80.5315 22.8135 81.5615 23.7223C82.6118 24.611 83.1369 25.7825 83.1369 27.2367C83.1369 28.3072 82.8744 29.1252 82.3492 29.6907C81.8443 30.2562 80.8748 30.6905 79.4408 30.9934C78.027 31.2964 75.9769 31.4479 73.2907 31.4479C73.4321 32.6799 73.8158 33.5787 74.4419 34.1442C75.0882 34.7098 76.0274 35.0026 77.2595 35.0228ZM77.1686 24.8736C74.8257 24.8736 73.5229 26.2268 73.2604 28.9333C75.8457 28.9333 77.623 28.7919 78.5925 28.5091C79.5822 28.2062 80.077 27.681 80.077 26.9337C80.077 26.3682 79.8145 25.8835 79.2893 25.4795C78.7642 25.0756 78.0573 24.8736 77.1686 24.8736Z" fill="white"/>
<path d="M99.0001 37.295L95.9099 37.901C95.7281 37.3758 95.5766 36.8305 95.4554 36.265C94.3244 37.2142 93.0115 37.6889 91.5169 37.6889C89.2952 37.6889 87.5986 37.0123 86.4272 35.659C85.2759 34.2856 84.7003 32.5284 84.7003 30.3875C84.7003 27.8628 85.387 25.8835 86.7604 24.4495C88.154 22.9952 90.3455 22.2681 93.3347 22.2681C94.8091 22.2681 96.5663 22.561 98.6062 23.1467V32.8415C98.6062 34.4169 98.7375 35.9014 99.0001 37.295ZM92.0319 34.8107C93.3852 34.8107 94.4455 34.225 95.213 33.0536V32.9627V25.6007C94.284 25.3987 93.4963 25.2977 92.8499 25.2977C89.7395 25.2977 88.1843 26.9438 88.1843 30.236C88.1843 31.6095 88.5378 32.7203 89.2447 33.5686C89.9516 34.3967 90.8807 34.8107 92.0319 34.8107Z" fill="white"/>
<path fill-rule="evenodd" clip-rule="evenodd" d="M30.2964 8.7121C30.6158 8.7121 30.9305 8.73186 31.2395 8.77024V13.8122C31.2395 14.7086 31.9662 15.4353 32.8625 15.4353H37.8232C37.8544 15.7146 37.8705 15.9985 37.8705 16.2861V39.0083C37.8705 43.1913 34.4795 46.5823 30.2964 46.5823H7.57428C3.39125 46.5823 0.000244141 43.1913 0.000244141 39.0083V16.2861C0.000244141 12.1031 3.39126 8.7121 7.57429 8.7121H30.2964ZM35.7067 35.0531C35.6865 34.1644 35.6764 33.5484 35.6764 33.205V23.4497C33.5556 22.662 31.5359 22.2681 29.6171 22.2681C26.9309 22.2681 24.9515 22.9952 23.6791 24.4494C22.4268 25.8835 21.8007 27.8628 21.8007 30.3875C21.8007 32.4476 22.3662 34.1543 23.4973 35.5075C24.6486 36.8608 26.2845 37.5374 28.4053 37.5374C29.8595 37.5374 31.1723 37.0829 32.3438 36.1741C32.364 36.4568 32.3741 36.8305 32.3741 37.295C32.3741 38.2645 32.0509 39.0522 31.4046 39.6581C30.7785 40.2842 29.8494 40.5973 28.6174 40.5973C27.1631 40.5973 25.6786 40.365 24.1638 39.9005L23.4367 42.5363C25.3959 43.2432 27.1227 43.5966 28.6174 43.5966C30.7179 43.5966 32.4347 43.0715 33.7677 42.0212C35.1007 40.971 35.7673 39.3855 35.7673 37.2647C35.7673 36.6588 35.7471 35.9216 35.7067 35.0531ZM32.2832 33.1444C31.5561 34.1139 30.4957 34.5987 29.1021 34.5987C27.971 34.5987 27.052 34.1947 26.3451 33.3868C25.6382 32.5587 25.2848 31.5084 25.2848 30.236C25.2848 28.7616 25.618 27.58 26.2845 26.6914C26.9713 25.7825 28.0417 25.328 29.4959 25.328C30.4654 25.328 31.3945 25.5098 32.2832 25.8734V33.1444Z" fill="white"/>
<path d="M32.6924 8.80587C32.6924 8.2709 33.1261 7.83722 33.661 7.83722H38.02C38.5549 7.83722 38.9886 8.2709 38.9886 8.80587V13.1648C38.9886 13.6998 38.5549 14.1335 38.02 14.1335H33.661C33.1261 14.1335 32.6924 13.6998 32.6924 13.1648V8.80587Z" fill="white"/>
<path d="M35.356 2.08028C35.356 1.67905 35.6812 1.35379 36.0824 1.35379H39.8305C40.2318 1.35379 40.557 1.67905 40.557 2.08028V5.82837C40.557 6.2296 40.2318 6.55487 39.8305 6.55487H36.0824C35.6812 6.55487 35.356 6.22961 35.356 5.82838V2.08028Z" fill="white"/>
<path d="M30.5132 3.16998C30.5132 2.83563 30.7842 2.56458 31.1186 2.56458H33.3421C33.6765 2.56458 33.9476 2.83563 33.9476 3.16998V5.39354C33.9476 5.72789 33.6765 5.99894 33.3421 5.99894H31.1186C30.7842 5.99894 30.5132 5.72789 30.5132 5.39354V3.16998Z" fill="white"/>
<path d="M40.4421 8.18354C40.4421 7.88889 40.681 7.65002 40.9757 7.65002H43.2989C43.5936 7.65002 43.8324 7.88889 43.8324 8.18354V10.5068C43.8324 10.8014 43.5936 11.0403 43.2989 11.0403H40.9757C40.681 11.0403 40.4421 10.8014 40.4421 10.5068V8.18354Z" fill="white"/>
<path d="M41.6521 1.4116C41.6521 1.14412 41.8689 0.927277 42.1364 0.927277H43.8316C44.0991 0.927277 44.3159 1.14412 44.3159 1.4116V3.10675C44.3159 3.37423 44.0991 3.59107 43.8316 3.59107H42.1364C41.8689 3.59107 41.6521 3.37423 41.6521 3.10675V1.4116Z" fill="#FF6900"/>
</svg>
